<svg width="210" height="48" viewBox="0 0 210 48" fill="none" xmlns="http://www.w3.org/2000/svg">
<path d="M25.9439 7.42561C23.6777 11.7905 21.5044 15.999 19.294 20.2074C19.0339 20.7117 19.2568 20.903 19.6283 21.1986C23.5291 24.3984 24.8851 28.4851 24.4765 33.2152C24.4765 33.2674 24.4207 33.3196 24.365 33.4239C24.1607 33.4413 23.9192 33.4587 23.6963 33.4587C20.2227 33.4587 16.7678 33.4761 13.2942 33.4413C12.6626 33.4413 12.3654 33.6326 12.1054 34.1369C9.93208 38.3801 7.72164 42.6059 5.54834 46.8665C5.26971 47.423 4.93536 47.6317 4.28523 47.5969C3.15214 47.5447 2.00048 47.5795 0.681641 47.5795C1.35035 46.31 1.96333 45.1275 2.59489 43.945C4.78676 39.8235 6.97863 35.7194 9.15193 31.5979C9.43055 31.0589 9.74633 30.8502 10.415 30.8502C14.6316 30.885 18.8296 30.8676 23.0462 30.8676C23.3805 30.8676 23.7149 30.8676 24.1607 30.8676C23.7334 25.4244 20.9472 21.6334 15.709 19.3205C19.1082 12.9383 22.4889 6.59088 25.981 0C34.4699 15.9468 42.8473 31.7197 51.3176 47.5969C49.8502 47.5969 48.5685 47.6317 47.2682 47.5795C47.0082 47.5621 46.6552 47.3187 46.5438 47.0752C42.3458 38.9888 38.1478 30.9023 33.9684 22.8159C31.4422 17.9293 28.8973 13.0426 26.3711 8.1386C26.2597 7.94731 26.1296 7.75602 25.9439 7.42561Z"/>
<path d="M65.4646 17.1675H68.4108L73.4827 30.5H70.3501L69.3991 27.5538H64.4577L63.5067 30.5H60.4299L65.4646 17.1675ZM68.7091 25.3162L66.9563 19.8154H66.919L65.1662 25.3162H68.7091ZM74.626 17.1675H80.7608C82.1407 17.1675 83.2284 17.5156 84.024 18.2117C84.8196 18.9079 85.2174 19.9397 85.2174 21.3071C85.2174 22.227 85.0372 22.9978 84.6767 23.6193C84.3162 24.2284 83.8003 24.6884 83.129 24.9992C82.4577 25.31 81.6683 25.4654 80.7608 25.4654H77.4976V30.5H74.626V17.1675ZM80.2387 23.0786C80.6738 23.0786 81.0405 23.0164 81.3389 22.8921C81.6372 22.7678 81.8672 22.5813 82.0288 22.3327C82.1904 22.0716 82.2712 21.7298 82.2712 21.3071C82.2712 20.698 82.0972 20.2567 81.7491 19.9832C81.4135 19.6973 80.91 19.5543 80.2387 19.5543H77.4976V23.0786H80.2387ZM89.6315 19.5543H85.5851V17.1675H96.5308V19.5543H92.5031V30.5H89.6315V19.5543ZM98.0074 17.1675H107.872V19.5543H100.879V22.4446H106.939V24.8314H100.879V28.1132H108.002V30.5H98.0074V17.1675ZM110.423 30.7797C110.075 30.7797 109.733 30.7611 109.397 30.7238C109.074 30.6865 108.844 30.6305 108.707 30.5559V28.0946C109.055 28.2189 109.428 28.281 109.826 28.281C110.224 28.281 110.522 28.1567 110.721 27.9081C110.92 27.647 111.032 27.2119 111.057 26.6028L111.579 17.1675H120.417V30.5H117.546V19.5543H114.133L113.723 26.8452C113.649 28.2748 113.319 29.288 112.735 29.8847C112.163 30.4814 111.392 30.7797 110.423 30.7797ZM122.809 17.1675H125.681V21.5495H128.403C129.36 21.5495 130.193 21.7298 130.902 22.0903C131.61 22.4508 132.157 22.9605 132.543 23.6193C132.928 24.2782 133.121 25.0613 133.121 25.9688C133.121 26.9012 132.922 27.7092 132.524 28.3929C132.126 29.0642 131.561 29.5863 130.827 29.9592C130.094 30.3197 129.224 30.5 128.217 30.5H122.809V17.1675ZM128.179 28.1132C128.59 28.1132 128.944 28.0324 129.242 27.8708C129.541 27.6968 129.771 27.4481 129.932 27.1249C130.094 26.8017 130.175 26.4163 130.175 25.9688C130.175 25.3597 130.007 24.8687 129.671 24.4957C129.348 24.1228 128.907 23.9363 128.347 23.9363H125.681V28.1132H128.179ZM138.037 17.1675H148.144V30.5H146.465V18.6593H139.715V30.5H138.037V17.1675ZM150.911 17.1675H156.207C157.512 17.1675 158.557 17.4845 159.34 18.1185C160.135 18.7401 160.533 19.7159 160.533 21.046C160.533 22.3762 160.135 23.3583 159.34 23.9922C158.557 24.6138 157.512 24.9246 156.207 24.9246H152.59V30.5H150.911V17.1675ZM156.319 23.4328C157.152 23.4328 157.767 23.2402 158.165 22.8548C158.575 22.457 158.78 21.8541 158.78 21.046C158.78 20.238 158.575 19.6413 158.165 19.2559C157.767 18.8581 157.152 18.6593 156.319 18.6593H152.59V23.4328H156.319ZM168.093 30.7611C166.812 30.7611 165.675 30.4627 164.681 29.866C163.698 29.2693 162.934 28.4488 162.387 27.4046C161.84 26.348 161.567 25.1546 161.567 23.8244C161.567 22.4943 161.84 21.3071 162.387 20.2629C162.934 19.2062 163.698 18.3858 164.681 17.8015C165.675 17.2048 166.812 16.9064 168.093 16.9064C169.373 16.9064 170.505 17.2048 171.487 17.8015C172.481 18.3858 173.252 19.2062 173.799 20.2629C174.346 21.3071 174.619 22.4943 174.619 23.8244C174.619 25.1546 174.346 26.348 173.799 27.4046C173.252 28.4488 172.481 29.2693 171.487 29.866C170.505 30.4627 169.373 30.7611 168.093 30.7611ZM163.319 23.8244C163.319 24.8314 163.487 25.7451 163.823 26.5655C164.171 27.386 164.699 28.0448 165.408 28.5421C166.129 29.0269 167.024 29.2693 168.093 29.2693C169.162 29.2693 170.051 29.0269 170.759 28.5421C171.48 28.0448 172.009 27.386 172.344 26.5655C172.692 25.7451 172.867 24.8314 172.867 23.8244C172.867 22.8299 172.692 21.9224 172.344 21.102C172.009 20.2815 171.48 19.6289 170.759 19.1441C170.051 18.6468 169.162 18.3982 168.093 18.3982C167.024 18.3982 166.129 18.6468 165.408 19.1441C164.699 19.6289 164.171 20.2815 163.823 21.102C163.487 21.9224 163.319 22.8299 163.319 23.8244ZM176.715 17.1675H185.945V18.6593H178.393V22.8548H185.05V24.3465H178.393V29.0083H186.169V30.5H176.715V17.1675ZM191.507 24.7381H189.81V30.5H188.132V17.1675H189.81V23.2464H191.545L196.467 17.1675H198.295L192.85 23.899L198.686 30.5H196.579L191.507 24.7381ZM203.142 18.6593H198.704V17.1675H209.259V18.6593H204.821V30.5H203.142V18.6593Z"/>
<path d="M104.099 14.6933H101.955L104.099 11.5854H106.617L104.099 14.6933Z">
</svg>
