<svg width="24" height="24" viewBox="0 0 24 24" fill="none" xmlns="http://www.w3.org/2000/svg">
<g clip-path="url(#clip0_358_281)">
<path d="M18.0146 16C18.8103 16 19.5734 16.3161 20.136 16.8787C20.6986 17.4413 21.0146 18.2044 21.0146 19C21.0146 19.7956 20.6986 20.5587 20.136 21.1213C19.5734 21.6839 18.8103 22 18.0146 22C17.219 22 16.4559 21.6839 15.8933 21.1213C15.3307 20.5587 15.0146 19.7956 15.0146 19C15.0146 18.2044 15.3307 17.4413 15.8933 16.8787C16.4559 16.3161 17.219 16 18.0146 16ZM15.5146 4C16.7081 4 17.8527 4.47411 18.6966 5.31802C19.5405 6.16193 20.0146 7.30653 20.0146 8.5C20.0146 9.69347 19.5405 10.8381 18.6966 11.682C17.8527 12.5259 16.7081 13 15.5146 13H8.51465C7.85161 13 7.21572 13.2634 6.74688 13.7322C6.27804 14.2011 6.01465 14.837 6.01465 15.5C6.01465 16.163 6.27804 16.7989 6.74688 17.2678C7.21572 17.7366 7.85161 18 8.51465 18H13.0146C13.2799 18 13.5342 18.1054 13.7218 18.2929C13.9093 18.4804 14.0146 18.7348 14.0146 19C14.0146 19.2652 13.9093 19.5196 13.7218 19.7071C13.5342 19.8946 13.2799 20 13.0146 20H8.51465C7.32117 20 6.17658 19.5259 5.33267 18.682C4.48875 17.8381 4.01465 16.6935 4.01465 15.5C4.01465 14.3065 4.48875 13.1619 5.33267 12.318C6.17658 11.4741 7.32117 11 8.51465 11H15.5146C16.1777 11 16.8136 10.7366 17.2824 10.2678C17.7513 9.79893 18.0146 9.16304 18.0146 8.5C18.0146 7.83696 17.7513 7.20107 17.2824 6.73223C16.8136 6.26339 16.1777 6 15.5146 6H11.0146C10.7494 6 10.4951 5.89464 10.3075 5.70711C10.12 5.51957 10.0146 5.26522 10.0146 5C10.0146 4.73478 10.12 4.48043 10.3075 4.29289C10.4951 4.10536 10.7494 4 11.0146 4H15.5146ZM6.01465 2C6.8103 2 7.57336 2.31607 8.13597 2.87868C8.69858 3.44129 9.01465 4.20435 9.01465 5C9.01465 5.79565 8.69858 6.55871 8.13597 7.12132C7.57336 7.68393 6.8103 8 6.01465 8C5.219 8 4.45594 7.68393 3.89333 7.12132C3.33072 6.55871 3.01465 5.79565 3.01465 5C3.01465 4.20435 3.33072 3.44129 3.89333 2.87868C4.45594 2.31607 5.219 2 6.01465 2Z" fill="#0060FE"/>
</g>
<defs>
<clipPath id="clip0_358_281">
<rect width="24" height="24" fill="white"/>
</clipPath>
</defs>
</svg>
