<svg width="1024" height="510" viewBox="0 0 1024 510" fill="none" xmlns="http://www.w3.org/2000/svg">
<g opacity="0.2">
<path d="M921.12 52.4928H47.2441V64.1315H921.12V52.4928Z" stroke="#F1F6FF" stroke-width="1.89838" stroke-miterlimit="10" stroke-linecap="round" stroke-linejoin="round"/>
<path d="M316.717 421.852H47.2441V433.49H316.717V421.852Z" stroke="#F1F6FF" stroke-width="1.89838" stroke-miterlimit="10" stroke-linecap="round" stroke-linejoin="round"/>
<path d="M316.468 64.2378H305.078V104.104H316.468V64.2378Z" stroke="#F1F6FF" stroke-width="1.89838" stroke-miterlimit="10" stroke-linecap="round" stroke-linejoin="round"/>
<path d="M621.158 64.2378H608.818V104.104H621.158V64.2378Z" stroke="#F1F6FF" stroke-width="1.89838" stroke-miterlimit="10" stroke-linecap="round" stroke-linejoin="round"/>
<path d="M632.547 64.2378H621.157V433.472H632.547V64.2378Z" stroke="#F1F6FF" stroke-width="1.89838" stroke-miterlimit="10" stroke-linecap="round" stroke-linejoin="round"/>
<path d="M921.101 64.2378H909.711V433.472H921.101V64.2378Z" stroke="#F1F6FF" stroke-width="1.89838" stroke-miterlimit="10" stroke-linecap="round" stroke-linejoin="round"/>
<path d="M59.2379 64.2378H46.8984V433.472H59.2379V64.2378Z" stroke="#F1F6FF" stroke-width="1.89838" stroke-miterlimit="10" stroke-linecap="round" stroke-linejoin="round"/>
<path d="M305.078 64.2378H293.688V433.472H305.078V64.2378Z" stroke="#F1F6FF" stroke-width="1.89838" stroke-miterlimit="10" stroke-linecap="round" stroke-linejoin="round"/>
<path d="M920.756 421.852H609.099V433.49H920.756V421.852Z" stroke="#F1F6FF" stroke-width="1.89838" stroke-miterlimit="10" stroke-linecap="round" stroke-linejoin="round"/>
<path d="M621.158 104.104H608.818V433.472H621.158V104.104Z" stroke="#F1F6FF" stroke-width="1.89838" stroke-miterlimit="10" stroke-linecap="round" stroke-linejoin="round"/>
<path d="M316.468 104.104H305.078V433.472H316.468V104.104Z" stroke="#F1F6FF" stroke-width="1.89838" stroke-miterlimit="10" stroke-linecap="round" stroke-linejoin="round"/>
<path d="M608.818 433.472L608.818 422.082L316.468 422.082L316.468 433.472L608.818 433.472Z" stroke="#F1F6FF" stroke-width="1.89838" stroke-miterlimit="10" stroke-linecap="round" stroke-linejoin="round"/>
<path d="M468.339 104.104H456.948L456.948 418.285H468.339L468.339 104.104Z" stroke="#F1F6FF" stroke-width="1.89838" stroke-miterlimit="10" stroke-linecap="round" stroke-linejoin="round"/>
<path d="M316.717 427.059V433.472H47.2441V427.059V65.2785V58.8649V52.2444H921.12V58.8649V65.2785V427.059V433.472H609.1V427.059V104.512H462.908H316.717V427.059Z" stroke="#F1F6FF" stroke-width="2.61027" stroke-miterlimit="10" stroke-linecap="round" stroke-linejoin="round"/>
<path d="M397.028 188.266L389.983 195.311" stroke="#F1F6FF" stroke-width="1.42378" stroke-miterlimit="10" stroke-linecap="round" stroke-linejoin="round"/>
<path d="M380.735 192.546L387.78 185.501" stroke="#F1F6FF" stroke-width="1.42378" stroke-miterlimit="10" stroke-linecap="round" stroke-linejoin="round"/>
<path d="M380.064 198.622L397.699 180.988" stroke="#F1F6FF" stroke-width="1.42378" stroke-miterlimit="10" stroke-linecap="round" stroke-linejoin="round"/>
<path d="M548.898 188.266L541.854 195.311" stroke="#F1F6FF" stroke-width="1.42378" stroke-miterlimit="10" stroke-linecap="round" stroke-linejoin="round"/>
<path d="M532.605 192.546L539.65 185.501" stroke="#F1F6FF" stroke-width="1.42378" stroke-miterlimit="10" stroke-linecap="round" stroke-linejoin="round"/>
<path d="M531.934 198.622L549.569 180.988" stroke="#F1F6FF" stroke-width="1.42378" stroke-miterlimit="10" stroke-linecap="round" stroke-linejoin="round"/>
<path d="M230.106 188.266L223.062 195.311" stroke="#F1F6FF" stroke-width="1.42378" stroke-miterlimit="10" stroke-linecap="round" stroke-linejoin="round"/>
<path d="M213.812 192.546L220.857 185.501" stroke="#F1F6FF" stroke-width="1.42378" stroke-miterlimit="10" stroke-linecap="round" stroke-linejoin="round"/>
<path d="M213.142 198.622L230.777 180.988" stroke="#F1F6FF" stroke-width="1.42378" stroke-miterlimit="10" stroke-linecap="round" stroke-linejoin="round"/>
<path d="M139.01 188.266L131.965 195.311" stroke="#F1F6FF" stroke-width="1.42378" stroke-miterlimit="10" stroke-linecap="round" stroke-linejoin="round"/>
<path d="M122.718 192.546L129.763 185.501" stroke="#F1F6FF" stroke-width="1.42378" stroke-miterlimit="10" stroke-linecap="round" stroke-linejoin="round"/>
<path d="M122.047 199.223L139.682 181.589" stroke="#F1F6FF" stroke-width="1.42378" stroke-miterlimit="10" stroke-linecap="round" stroke-linejoin="round"/>
<path d="M260.316 108.899H183.604V271.914H260.316V108.899Z" stroke="#F1F6FF" stroke-width="2.13568" stroke-miterlimit="10" stroke-linecap="round" stroke-linejoin="round"/>
<path d="M265.112 104.104H178.81V276.707H265.112V104.104Z" stroke="#F1F6FF" stroke-width="2.13568" stroke-miterlimit="10" stroke-linecap="round" stroke-linejoin="round"/>
<path d="M169.22 108.899H92.5078V271.914H169.22V108.899Z" stroke="#F1F6FF" stroke-width="2.13568" stroke-miterlimit="10" stroke-linecap="round" stroke-linejoin="round"/>
<path d="M174.016 104.104H87.7139V276.707H174.016V104.104Z" stroke="#F1F6FF" stroke-width="2.13568" stroke-miterlimit="10" stroke-linecap="round" stroke-linejoin="round"/>
<path d="M736.999 188.266L729.954 195.311" stroke="#F1F6FF" stroke-width="1.42378" stroke-miterlimit="10" stroke-linecap="round" stroke-linejoin="round"/>
<path d="M720.706 192.546L727.751 185.501" stroke="#F1F6FF" stroke-width="1.42378" stroke-miterlimit="10" stroke-linecap="round" stroke-linejoin="round"/>
<path d="M720.036 199.223L737.671 181.589" stroke="#F1F6FF" stroke-width="1.42378" stroke-miterlimit="10" stroke-linecap="round" stroke-linejoin="round"/>
<path d="M858.305 108.899H781.593V271.914H858.305V108.899Z" stroke="#F1F6FF" stroke-width="2.13568" stroke-miterlimit="10" stroke-linecap="round" stroke-linejoin="round"/>
<path d="M863.1 104.104H776.798V276.707H863.1V104.104Z" stroke="#F1F6FF" stroke-width="2.13568" stroke-miterlimit="10" stroke-linecap="round" stroke-linejoin="round"/>
<path d="M767.209 108.899H690.496V271.914H767.209V108.899Z" stroke="#F1F6FF" stroke-width="2.13568" stroke-miterlimit="10" stroke-linecap="round" stroke-linejoin="round"/>
<path d="M772.004 104.104H685.702V276.707H772.004V104.104Z" stroke="#F1F6FF" stroke-width="2.13568" stroke-miterlimit="10" stroke-linecap="round" stroke-linejoin="round"/>
<path d="M828.095 188.266L821.05 195.311" stroke="#F1F6FF" stroke-width="1.42378" stroke-miterlimit="10" stroke-linecap="round" stroke-linejoin="round"/>
<path d="M811.803 192.546L818.848 185.501" stroke="#F1F6FF" stroke-width="1.42378" stroke-miterlimit="10" stroke-linecap="round" stroke-linejoin="round"/>
<path d="M811.132 199.223L828.767 181.589" stroke="#F1F6FF" stroke-width="1.42378" stroke-miterlimit="10" stroke-linecap="round" stroke-linejoin="round"/>
<path d="M858.305 108.899H781.593V271.914H858.305V108.899Z" stroke="#F1F6FF" stroke-width="2.13568" stroke-miterlimit="10" stroke-linecap="round" stroke-linejoin="round"/>
<path d="M863.1 104.104H776.798V276.707H863.1V104.104Z" stroke="#F1F6FF" stroke-width="2.13568" stroke-miterlimit="10" stroke-linecap="round" stroke-linejoin="round"/>
</g>
</svg>
