<svg width="1178" height="510" viewBox="0 0 1178 510" fill="none" xmlns="http://www.w3.org/2000/svg">
<g opacity="0.2">
<path d="M682.663 178.693C684.318 178.324 685.606 177.032 686.341 175.556C687.445 173.711 688.181 171.866 688.733 169.837C689.469 167.623 689.836 165.409 690.204 163.195C690.388 162.088 690.388 160.797 690.204 159.69C690.02 159.137 689.836 158.399 689.469 157.845C689.101 157.476 688.733 157.107 688.365 156.923C687.261 154.709 684.686 153.417 682.663 152.126C679.168 149.912 676.225 146.96 673.465 144.008C669.051 139.212 663.533 132.754 659.302 127.773C655.991 123.899 652.864 119.84 650.105 115.597C648.817 113.567 647.529 111.354 646.61 109.14C645.506 106.557 644.402 103.051 643.483 100.284C642.747 98.0702 641.827 95.6718 640.54 93.6424C639.068 91.244 636.861 89.0301 634.837 87.0007L628.951 81.466C626.192 78.8831 623.433 75.3778 621.041 72.4259C619.386 70.3965 617.547 68.3671 615.339 66.8912C613.132 65.4153 610.741 64.3083 608.165 63.7549C602.095 62.2789 595.473 62.2789 589.219 63.0169C585.54 63.3859 581.862 64.3083 578.367 65.5998C574.504 67.0757 570.825 69.1051 567.514 71.5035C564.571 69.8431 561.444 68.5516 558.317 67.8137C556.293 67.4447 554.454 67.2602 552.431 67.4447C551.327 67.6292 550.407 67.8137 549.487 68.5516C548.936 68.9206 548.384 69.6586 548.2 70.3965C548.016 71.5035 548.016 72.6104 548.2 73.5329C548.936 77.0382 550.775 80.359 552.247 83.6799C548.568 86.6317 544.705 89.5836 540.474 91.7975C535.508 94.3803 527.598 96.7787 522.264 98.6236C506.629 104.158 483.084 113.752 467.265 118.549C464.689 119.287 462.114 120.025 459.539 120.394C456.964 120.763 454.389 120.947 451.813 120.763C441.145 120.209 426.981 118.18 416.496 117.811C409.322 117.442 401.965 117.442 394.791 118.18C386.329 118.918 372.534 121.5 363.888 122.976C356.163 124.268 348.069 125.375 340.343 125.928C332.25 126.482 323.421 126.851 315.327 126.851C312.568 126.851 304.658 126.851 301.715 126.851L163.39 123.345C154.376 122.976 134.143 122.238 125.129 121.685C121.451 121.5 117.404 121.501 113.909 121.501C110.046 121.685 105.999 122.054 102.136 122.792C92.2035 124.821 82.8224 130.172 75.6486 137.182C70.4981 142.163 66.0835 148.252 62.7725 154.709C58.9097 162.273 56.1505 170.575 54.8629 179.062C54.3111 183.305 53.9432 187.733 53.9432 191.976C53.9432 194.19 53.9432 197.142 53.9432 199.356C54.679 220.019 54.679 248.061 56.1505 268.355C57.0703 284.037 59.2776 303.04 56.8863 318.721C56.3345 321.858 55.7826 325.178 54.8629 328.315C53.9432 331.82 52.4717 335.141 51.1841 338.462C50.0804 341.229 47.5052 346.395 46.7694 349.162C46.5855 349.531 46.5855 350.085 46.5855 350.454L46.7694 350.638C47.1373 350.823 47.5052 350.638 47.8731 350.638C48.241 350.638 48.6088 350.638 48.7928 350.823C48.7928 351.192 48.7928 351.745 48.6088 352.114C48.241 354.143 46.4015 358.756 45.6657 360.785C44.3781 364.475 43.2745 368.349 42.7226 372.039C42.3548 375.36 42.5387 378.865 43.0905 382.186C43.4584 383.846 43.8263 385.507 44.746 387.167C45.1139 387.721 45.4818 388.459 46.0336 388.828C46.4015 389.012 46.7694 388.828 47.3212 388.643C47.5052 388.643 47.8731 388.459 48.057 388.643C48.4249 389.197 48.6088 389.935 48.7928 390.488C50.0804 395.838 50.2643 401.927 52.2877 407.092C52.8395 408.199 53.3914 409.491 54.1272 410.413C54.3111 410.598 54.679 410.967 55.0469 411.151C55.2308 410.782 55.4148 410.413 55.4148 410.044C55.9666 407.646 56.1505 403.403 56.3345 400.82C56.5184 398.421 56.8863 395.838 57.4381 393.624C57.806 391.78 58.5418 390.119 59.2776 388.459C60.5652 385.507 62.5886 382.186 63.6922 379.05C64.428 377.205 64.7959 375.175 64.7959 373.146C64.9798 366.689 63.5083 359.678 63.3243 353.406C63.3243 351.376 63.5083 349.162 63.8762 347.133C64.428 343.996 65.7156 339.938 66.4514 336.801C67.1872 333.849 67.555 330.898 67.3711 327.761C67.3711 323.887 66.0835 315.769 65.5317 312.08C64.9798 306.914 64.428 301.195 64.2441 296.029C63.1404 274.074 63.1404 251.013 64.0601 229.059C64.6119 215.591 66.4514 201.385 68.4748 188.102C69.3945 199.356 71.7857 210.61 75.4646 221.31C78.0398 229.059 82.0866 237.361 84.6618 244.925C85.7655 248.246 86.3173 251.751 86.5012 255.256C86.6852 257.839 86.6852 261.345 87.0531 263.743C87.421 266.879 88.1567 270.016 88.8925 272.967C90.3641 278.502 92.9393 284.59 93.675 290.125C94.4108 295.66 93.3072 301.195 92.0196 306.729C89.8122 315.954 87.6049 325.732 83.926 334.587C81.9026 339.384 78.5917 344.734 75.8325 349.162C73.8091 352.299 72.1536 355.804 71.05 359.309C69.9463 362.815 69.3945 366.689 69.9463 370.379C70.3142 372.777 71.2339 376.651 71.7857 379.234C72.3376 381.448 72.7055 383.846 73.0734 386.245C74.5449 398.79 72.5215 411.52 69.5784 423.512L63.3243 448.234C62.7725 450.448 62.2207 452.846 62.4046 455.244C62.5886 456.536 62.9564 457.827 63.5083 458.934C64.0601 460.041 64.7959 460.964 65.8995 461.702C66.4514 462.255 67.3711 462.44 68.1069 462.624C69.2105 462.809 70.3142 462.809 71.4179 463.178C72.7055 463.731 73.4412 464.838 73.9931 465.945C77.1201 471.664 78.0398 479.413 80.4311 485.501C80.9829 486.792 81.7187 488.268 83.1903 489.006C83.926 489.375 84.8457 489.375 85.5815 489.375C87.9728 489.375 107.103 489.375 108.942 489.375C109.678 489.375 110.414 489.375 111.15 489.191C111.885 489.006 112.621 488.822 113.357 488.453C114.093 487.899 114.645 486.977 114.829 485.87C115.196 484.578 115.196 483.103 115.013 481.811C114.829 480.52 114.645 479.044 113.909 477.937C113.357 477.014 112.621 476.092 111.885 475.354C110.414 473.878 108.023 472.402 106.183 471.111C104.16 469.635 101.953 467.974 100.113 466.314C98.6415 464.838 97.17 463.362 96.0663 461.517C94.7787 459.303 93.675 456.905 92.9393 454.506C92.2035 451.924 91.6517 449.156 91.4677 446.573C90.9159 441.223 90.7319 435.135 90.548 429.785C90.548 419.822 90.7319 409.675 93.4911 400.082C95.6984 391.964 100.113 382.555 103.608 374.806C105.631 370.379 107.839 365.028 110.23 360.785C111.885 357.833 113.725 355.066 116.116 352.668C119.243 349.162 122.922 346.21 126.601 343.443C128.44 345.288 130.648 347.317 132.855 348.609C135.246 350.269 138.741 352.114 141.133 353.774C142.604 354.697 143.892 355.804 144.627 357.464C144.811 358.018 144.995 358.756 145.179 359.309C145.731 362.63 145.731 366.689 146.651 370.01C147.019 371.486 147.571 373.146 148.674 374.437C149.41 375.175 150.698 375.729 151.617 375.175C152.353 374.806 152.905 373.884 153.089 373.146C154.193 370.194 154.376 366.689 155.296 363.553C155.48 362.815 155.664 362.261 156.216 361.708C156.4 361.339 156.768 360.97 157.32 360.785C157.871 360.601 158.423 360.416 158.975 360.416C159.711 360.416 160.447 360.416 161.182 360.601C162.838 360.785 164.861 361.154 166.517 361.339C168.172 361.523 169.828 361.339 171.483 361.154C172.955 360.97 175.346 360.601 176.818 360.785C177.185 360.785 177.553 360.785 177.737 360.97C177.921 360.97 178.289 361.154 178.473 361.339C178.657 361.523 178.841 361.892 179.025 362.261C179.209 362.815 179.393 363.184 179.577 363.737C180.313 366.873 181.048 370.563 182.336 373.33C182.888 374.253 183.44 375.36 184.543 375.913C184.911 376.098 185.463 376.098 185.831 375.913C186.751 375.544 187.118 374.806 187.486 373.884C188.958 370.563 189.142 366.504 190.062 363.184C190.429 362.261 190.613 361.339 191.165 360.416C191.533 359.863 192.085 359.309 192.821 358.94C193.189 358.756 193.556 358.571 193.74 358.387C195.212 357.649 197.419 356.542 198.891 355.804C205.881 352.114 211.951 346.764 217.469 341.229C219.309 339.384 221.332 337.355 222.987 335.325C224.091 334.218 225.195 332.374 226.298 331.267C227.218 330.344 228.138 329.606 229.609 329.237C230.529 329.053 231.449 329.053 232.552 329.237C234.208 329.422 235.68 329.791 237.335 330.344C247.268 333.48 257.753 338.831 267.686 341.783C271.732 343.074 275.963 343.996 280.194 343.996C286.264 344.181 292.15 342.336 297.853 340.122C304.107 340.122 310.545 339.569 316.799 338.462C327.283 336.801 346.23 331.82 356.715 329.237C364.992 327.392 373.453 325.363 381.915 324.994C386.329 324.809 390.744 324.994 394.975 325.547C401.781 326.285 410.426 328.499 417.232 329.791C416.496 339.938 415.025 350.638 415.944 360.785C416.128 362.815 416.496 364.844 416.864 366.689C417.232 368.903 418.704 374.068 419.255 376.282C419.623 377.943 420.175 379.788 420.359 381.633C420.543 383.293 420.543 384.953 420.727 386.429C420.727 389.566 420.543 393.071 421.095 396.207C421.463 398.421 422.382 401.373 422.75 403.587C423.118 405.985 423.486 408.384 423.67 410.782C424.222 424.25 423.118 437.902 420.911 451.186C420.175 455.429 418.887 461.702 417.968 465.945C417.784 466.683 417.784 467.236 417.784 467.974C417.784 469.081 417.968 470.373 418.52 471.295C418.887 471.849 419.255 472.218 419.623 472.587C419.991 472.956 420.359 473.509 420.911 473.694C421.647 474.063 422.382 474.247 423.302 474.247C424.958 474.247 426.797 473.509 428.453 473.14C428.82 473.14 429.004 472.956 429.372 472.956C429.74 472.956 429.924 472.956 430.292 473.14C430.66 473.325 430.844 473.509 431.212 473.878C431.947 474.8 432.131 476.092 432.683 477.199C433.787 480.151 434.707 484.025 436.362 486.792C436.73 487.346 437.098 488.084 437.65 488.637C438.018 489.006 438.385 489.191 438.937 489.375C439.673 489.56 440.409 489.744 441.145 489.744H465.241C465.425 489.744 465.609 489.744 465.793 489.744C466.161 489.744 466.345 489.744 466.713 489.56C467.081 489.375 467.265 489.006 467.449 488.637C467.816 487.715 468 486.608 468.184 485.685C468.368 484.025 468.368 482.18 468.184 480.52C468 479.597 467.816 478.675 467.265 477.752C466.713 476.645 465.977 475.723 465.241 474.985C462.666 472.402 459.539 470.004 456.412 467.974C454.756 466.867 451.997 465.207 450.526 464.1C449.238 463.178 448.134 462.071 447.399 460.779C446.663 459.488 446.295 458.196 445.927 456.905C444.64 451.555 444.088 445.651 443.72 440.301C442.984 430.707 442.616 420.929 443.168 411.336C443.536 406.17 443.904 400.82 445.375 395.838C446.111 393.256 447.399 390.304 448.134 387.905C449.054 385.507 449.606 382.924 450.158 380.341C451.262 374.437 452.549 364.29 453.837 358.571C455.492 351.007 457.516 343.074 460.459 335.879C464.505 335.694 468.736 335.325 472.599 333.849C475.358 332.743 477.933 330.898 480.141 328.684C482.716 326.101 485.659 321.489 487.866 318.352C488.97 316.692 490.258 315.031 491.729 313.371C493.017 311.895 495.408 309.681 496.696 308.39C499.271 305.807 501.662 303.04 503.502 299.903C506.629 294.553 508.652 288.649 510.675 282.746C512.331 277.58 516.562 263.743 518.585 258.762C519.137 257.286 519.873 255.81 520.424 254.518C522.08 251.198 525.023 248.246 527.414 245.478C529.989 242.342 532.932 238.468 535.508 235.147C540.106 228.874 564.019 196.219 567.882 190.5C570.825 186.072 573.768 181.46 576.159 176.663C580.758 177.77 585.54 178.324 590.139 178.693C595.657 179.062 604.487 178.877 610.189 178.877C613.684 178.877 617.547 179.062 621.041 179.246C630.974 180.169 641.275 182.567 650.84 185.334C653.783 186.072 656.727 186.81 659.67 186.257C662.429 185.703 665.004 184.227 667.211 182.382C669.971 182.567 672.73 182.567 675.489 181.829C676.776 181.645 677.88 181.276 678.984 180.538C681.007 180.169 681.927 179.615 682.663 178.693Z" stroke="#F1F6FF" stroke-width="3" stroke-miterlimit="10" stroke-linecap="round" stroke-linejoin="round"/>
<path d="M257.79 125.679C259.997 130.476 262.757 135.641 267.907 138.04C271.034 139.331 274.529 139.516 278.024 139.331C282.438 139.147 287.957 138.778 292.371 139.516C295.131 139.885 297.89 140.807 300.465 142.098C306.903 145.419 312.053 150.954 314.997 157.596C316.1 159.994 316.836 162.577 316.836 165.16C317.02 166.82 316.836 168.665 316.1 170.141C314.997 172.908 312.789 175.122 310.03 176.414C308.558 177.152 306.719 177.521 305.064 177.705C302.672 178.074 299.913 178.259 297.522 179.181C296.234 179.735 295.131 180.288 294.027 181.21C292.739 182.502 291.636 183.978 290.716 185.454C289.428 187.852 288.509 190.435 287.773 193.202C287.221 195.416 286.853 197.815 286.853 200.213C286.853 201.873 287.037 203.534 287.405 205.01C287.957 207.593 289.612 209.991 290.9 212.389C291.82 213.865 292.555 215.526 292.739 217.371C292.923 218.293 292.923 219.216 292.739 220.323C292.555 222.905 291.82 226.411 291.268 228.994C290.716 232.499 289.98 236.373 291.636 239.694C292.555 241.539 294.027 243.015 295.866 243.937C297.522 244.86 299.361 245.044 301.201 245.044C303.04 244.86 304.696 244.122 306.351 243.384C309.478 241.908 312.605 239.51 315.732 238.218C316.652 237.849 317.756 237.665 318.675 238.034C319.227 238.218 319.779 238.587 320.147 239.141C320.699 240.063 321.067 241.17 321.251 242.092C321.435 243.753 321.067 245.413 320.331 246.889C319.595 248.181 318.675 249.288 317.756 250.395C316.284 252.055 314.445 253.346 312.605 254.638C306.535 259.066 299.545 263.678 294.579 269.582C293.291 271.242 292.004 273.087 291.452 275.301C291.268 276.408 291.268 277.515 291.636 278.437C292.004 279.544 292.555 280.467 293.291 281.205C294.579 282.496 296.05 283.234 297.706 283.787C300.281 284.71 303.224 284.894 305.983 284.341C307.639 283.972 309.11 283.603 310.398 282.68C312.789 281.389 314.629 279.544 316.468 277.515C319.227 274.378 321.986 270.135 324.562 266.814C326.401 264.416 328.976 262.017 330.632 259.619C331.551 258.328 332.287 256.852 332.839 255.376C334.862 249.841 335.966 243.568 339.093 238.587C339.645 237.665 340.565 236.742 341.3 236.004C342.404 235.082 343.692 234.344 345.163 234.159C345.899 233.975 346.635 233.975 347.371 234.344C347.922 234.528 348.474 235.082 348.658 235.635C348.842 236.189 349.026 236.742 349.026 237.296C349.026 238.034 349.026 238.772 348.842 239.325C348.474 241.355 347.738 244.122 347.371 246.151C347.003 247.996 346.451 250.026 346.635 252.055C346.635 252.977 346.819 253.9 347.187 254.638C348.106 256.298 349.946 257.405 351.601 258.143C353.441 259.066 355.648 259.988 357.304 261.095C359.695 262.94 360.798 266.261 361.902 268.844C362.638 270.504 363.558 272.349 365.213 273.456C366.317 274.194 367.604 274.378 368.892 274.378C370.731 274.378 372.571 273.825 374.226 272.902C377.721 271.058 379.929 267.552 380.848 263.862C381.768 260.542 381.768 256.852 380.297 253.715C379.377 251.502 377.905 249.472 376.986 247.074C376.618 245.967 376.434 244.675 376.802 243.384C377.169 242.092 377.721 240.986 378.273 239.694C379.929 236.742 382.504 233.421 384.159 230.47C384.895 229.178 385.447 227.702 385.631 226.226C385.999 222.536 383.607 219.4 381.952 216.264C381.216 214.788 380.297 213.127 380.113 211.467C379.377 206.117 383.056 201.136 385.447 196.708C386.918 194.125 388.206 191.357 388.758 188.406C389.31 185.823 389.494 183.24 389.494 180.473C389.494 177.521 389.126 174.569 388.39 171.617C387.654 168.665 386.367 165.529 384.527 163.13C381.4 159.256 376.618 156.858 372.387 154.09C371.099 153.168 369.628 152.245 368.34 151.138C367.053 150.032 365.949 148.74 364.845 147.449C362.638 144.681 360.982 141.36 359.879 138.04C358.407 133.612 357.671 128.815 357.855 124.018" stroke="#F1F6FF" stroke-width="1.5" stroke-miterlimit="10" stroke-linecap="round" stroke-linejoin="round"/>
<path d="M54.5322 229.732C55.0841 231.576 56.0038 233.421 57.1074 235.082C57.8432 236.004 58.579 236.742 59.6826 237.111C60.4184 237.296 61.1542 237.296 61.89 237.111C63.1776 236.742 64.4652 235.82 65.5688 235.082" stroke="#F1F6FF" stroke-width="1.5" stroke-miterlimit="10" stroke-linecap="round" stroke-linejoin="round"/>
<path d="M86.5381 246.52C88.9294 244.306 91.6885 241.908 94.8156 240.801C96.2871 240.432 97.7587 240.248 99.2302 240.248C102.173 240.248 105.3 240.432 108.059 239.51C110.451 238.772 112.29 236.927 113.762 235.082C116.705 231.208 118.544 226.411 119.648 221.798C120.2 219.4 120.752 215.895 121.487 213.312C121.855 212.205 122.223 210.914 122.959 209.807C124.798 206.67 129.029 206.301 132.34 207.039C134.547 207.408 136.571 208.331 138.594 209.253C140.985 210.36 143.561 212.02 146.136 212.574C147.24 212.758 148.343 212.943 149.447 212.758C150.918 212.574 152.39 211.836 153.494 210.914C155.149 209.622 156.437 207.777 157.172 205.748C157.54 204.272 157.724 202.796 157.724 201.136C157.356 194.678 154.229 187.852 154.413 181.21C154.413 178.812 154.965 176.414 155.885 174.015C157.172 170.51 159.564 167.005 160.667 163.499C161.035 162.208 161.403 160.732 161.219 159.256C161.035 158.149 160.667 156.858 159.932 155.935C158.092 153.168 154.965 150.585 152.39 148.187C150.734 146.526 148.895 144.866 147.791 142.652C146.504 140.254 146.136 137.302 145.032 134.719C144.112 132.689 143.009 130.844 141.721 129C139.882 126.417 137.858 124.018 135.651 121.804" stroke="#F1F6FF" stroke-width="1.5" stroke-miterlimit="10" stroke-linecap="round" stroke-linejoin="round"/>
<path d="M421.5 118.115C419.844 119.96 418.373 121.989 417.269 124.203C416.533 125.679 415.982 127.339 415.798 129.184C415.614 131.767 416.35 134.35 416.717 136.933C416.901 138.593 416.901 140.254 416.166 141.729C415.614 143.205 414.694 144.312 413.774 145.604C411.751 148.187 409.176 150.77 408.072 154.09C406.968 157.596 408.072 161.654 410.463 164.422C412.303 166.451 414.878 167.558 417.453 168.296C421.5 169.588 426.282 170.695 429.41 173.831C431.985 176.414 433.824 179.919 434.56 183.424C435.112 186.376 435.112 189.697 433.64 192.464C432.353 194.678 430.145 195.97 428.122 197.261L424.443 199.291C422.052 200.767 419.661 202.242 418.005 204.641C416.533 206.67 415.614 209.069 415.246 211.467C414.694 214.234 414.878 217.002 415.43 219.585C415.798 221.245 416.717 222.905 417.637 224.381C419.477 226.964 422.236 229.178 424.075 231.945C424.811 232.868 425.363 233.975 425.731 235.082C426.099 236.189 426.283 237.48 426.466 238.587C426.834 242.461 426.099 246.336 425.363 250.026C423.339 258.512 419.844 266.999 416.35 274.747C415.614 276.777 414.694 278.806 414.694 280.836C414.51 283.418 415.246 286.001 416.35 288.215C417.453 290.429 418.925 292.458 421.132 293.565C422.604 294.303 424.627 294.672 426.282 295.041C427.386 295.226 428.49 295.595 429.41 296.333C429.961 296.702 430.329 297.255 430.697 297.809C431.433 298.916 432.353 301.13 432.904 302.421C433.64 303.897 434.376 305.373 435.48 306.48C436.215 307.218 437.319 307.771 438.239 308.14C439.894 308.694 441.734 308.694 443.573 308.325C445.413 307.956 447.068 307.218 448.54 305.926C450.011 304.45 450.931 302.421 451.299 300.392C452.403 295.595 452.219 289.876 454.242 285.263C455.346 282.865 456.817 280.836 458.473 278.991C460.496 276.592 463.071 274.009 464.727 271.242C465.462 270.135 465.83 268.844 466.198 267.552C466.75 265.338 467.118 262.755 467.854 260.726C468.222 259.435 468.957 258.328 470.061 257.405C470.981 256.667 472.084 256.483 473.188 256.298C474.66 256.114 476.315 256.483 477.787 257.221C478.89 257.774 479.81 258.697 480.362 259.804C480.73 260.726 480.914 261.649 481.098 262.755C481.282 266.076 480.178 269.397 479.258 272.533C477.971 276.592 475.763 282.68 475.395 286.924C475.395 288.031 475.212 289.138 475.579 290.245C475.763 290.983 476.315 291.536 476.867 292.089C477.603 292.643 478.339 293.012 479.258 293.196C480.914 293.565 482.753 293.381 484.409 293.012C486.984 292.458 489.375 291.352 491.399 289.691C494.158 287.477 495.997 284.525 497.469 281.389C499.492 276.961 500.596 272.349 501.699 267.552C503.355 259.435 505.01 248.734 506.85 240.801C507.77 236.558 509.057 232.499 510.713 228.44C512.368 224.935 514.392 221.245 517.703 219.031C519.358 217.924 521.197 217.371 523.037 217.002C525.244 216.448 528.187 215.895 530.395 214.972C531.866 214.419 533.154 213.681 534.257 212.574C536.649 210.545 538.488 207.777 539.96 205.01C542.351 200.582 544.006 195.601 545.11 190.804C546.03 186.93 546.398 182.871 546.03 178.997C545.846 176.045 545.294 172.908 545.294 169.957C545.294 168.112 545.662 166.267 546.398 164.422C547.133 162.392 548.237 160.363 549.709 158.887C550.628 157.78 551.916 156.858 553.388 156.304C555.779 155.382 558.354 155.566 560.929 156.12C567.183 157.596 573.437 160.916 579.691 162.392C581.899 162.946 584.106 163.315 586.313 163.13C587.969 163.13 589.624 162.577 590.912 161.839C592.752 160.732 594.591 159.072 596.43 157.965C597.534 157.227 598.822 156.858 600.109 156.673C601.213 156.489 602.133 156.489 603.236 156.673C605.076 156.858 607.651 157.411 609.674 157.78C610.962 157.965 612.433 158.149 613.721 158.149C614.457 158.149 615.377 157.965 616.112 157.78C616.848 157.411 617.584 156.858 618.136 156.12C619.607 154.459 620.527 151.692 621.631 149.663C622.366 148.187 623.102 146.711 624.39 145.419C625.677 144.128 627.149 143.205 628.621 142.467C631.38 140.991 634.875 139.7 636.162 136.748C636.714 135.457 637.082 133.981 636.898 132.505C636.898 130.844 636.53 129.369 635.794 127.893C635.242 126.786 634.691 125.863 633.771 125.125C632.667 124.018 631.38 123.28 629.908 122.542C627.149 121.251 624.022 120.144 622.366 117.561C620.711 115.163 619.791 111.842 618.504 109.075C617.768 107.414 616.848 105.938 615.561 104.831C612.617 101.695 608.203 99.6655 605.076 96.7137C604.156 95.7912 603.236 94.6843 602.684 93.5773C601.213 90.441 601.213 86.5667 600.477 83.2459C600.109 81.7699 599.741 80.4785 599.006 79.1871C598.086 77.3421 596.798 75.6817 595.327 74.3903C593.303 72.3609 590.912 70.7005 588.521 69.2245C585.946 67.7486 583.186 66.4572 580.427 65.5347" stroke="#F1F6FF" stroke-width="1.5" stroke-miterlimit="10" stroke-linecap="round" stroke-linejoin="round"/>
<path d="M682.516 178.812C681.78 179.55 680.86 180.288 679.757 180.841C678.653 181.395 677.366 181.764 676.262 182.133C673.503 182.686 670.744 182.686 667.984 182.686" stroke="#F1F6FF" stroke-width="2.25" stroke-miterlimit="10" stroke-linecap="round" stroke-linejoin="round"/>
<path d="M567.551 71.8074C571.046 69.409 574.725 67.1952 578.771 65.7192C582.45 64.4278 586.313 63.5053 590.176 63.1364C596.246 62.5829 602.5 62.5829 608.386 64.0588C610.962 64.7968 613.537 65.7192 615.928 67.3796C617.951 68.8556 619.791 70.885 621.262 72.7299C622.366 74.2058 624.757 77.1577 626.045 78.6336C626.965 79.7405 628.068 80.8475 629.172 81.9544L635.058 87.4891C637.082 89.5185 639.105 91.7324 640.76 94.1308C642.048 96.1602 642.968 98.3741 643.703 100.772C644.623 103.54 645.543 107.045 646.831 109.628C647.75 111.842 649.038 114.056 650.325 116.085C653.085 120.329 656.396 124.387 659.523 128.262C663.753 133.243 669.272 139.7 673.686 144.497C676.445 147.449 679.572 150.401 682.883 152.614C684.907 153.906 687.482 155.197 688.586 157.411" stroke="#F1F6FF" stroke-width="2.25" stroke-miterlimit="10" stroke-linecap="round" stroke-linejoin="round"/>
<path d="M668.721 164.791C669.089 163.684 669.457 162.392 670.192 161.47C670.56 160.916 671.112 160.363 671.848 160.179C672.767 159.81 673.871 159.81 674.975 159.81C676.446 159.994 677.918 160.179 679.206 160.916C679.941 161.285 680.493 161.654 680.861 162.208C681.045 162.577 681.229 162.946 681.229 163.499C681.229 164.422 680.861 165.344 680.677 166.082V166.267" stroke="#F1F6FF" stroke-width="2.25" stroke-miterlimit="10" stroke-linecap="round" stroke-linejoin="round"/>
<path d="M673.686 178.074C673.318 178.074 670.743 177.705 670.375 177.705C668.536 177.521 666.88 177.152 665.409 176.045C664.489 175.307 663.569 174.384 663.018 173.277C662.098 171.617 661.546 169.588 661.546 167.558C661.362 165.344 661.73 163.13 662.65 161.101C663.201 159.81 663.937 158.334 665.041 157.411C667.064 155.751 669.823 155.935 672.399 156.12C674.238 156.304 676.813 156.858 678.653 156.858C680.308 156.858 683.067 156.858 684.723 156.673C685.643 156.673 686.562 156.673 687.482 156.858C688.034 156.858 688.402 157.042 688.954 157.411C689.505 157.78 689.873 158.518 690.241 159.072C690.425 159.81 690.425 160.363 690.425 161.101C690.425 162.208 690.241 163.315 690.241 164.422C689.689 167.927 688.77 171.432 687.114 174.753C686.378 176.229 685.459 177.521 683.987 178.259C683.251 178.628 682.332 178.812 681.412 178.997C678.837 179.181 676.078 178.443 673.686 178.074Z" stroke="#F1F6FF" stroke-width="2.25" stroke-miterlimit="10" stroke-linecap="round" stroke-linejoin="round"/>
<path d="M91.8731 142.283C86.3548 148.002 81.0204 154.09 76.9737 160.917C73.8466 166.082 71.6393 171.617 70.5356 177.521C69.6159 182.317 69.7999 187.114 70.3517 191.911C71.0875 198.184 72.1911 204.825 73.6627 210.914C74.9503 215.895 76.4218 221.061 78.2613 225.857C80.1007 231.023 83.4117 238.403 85.4351 243.568C86.1708 245.598 86.9066 247.812 87.4584 249.841C87.8263 251.87 88.1942 254.084 88.1942 256.298C88.3782 258.881 88.3782 262.386 88.7461 264.785C89.1139 267.921 89.8497 271.058 90.5855 274.009C92.057 279.544 94.6323 285.632 95.368 291.167C96.1038 296.702 95.0001 302.237 93.7125 307.771C91.5052 316.996 89.2979 326.774 85.619 335.629C83.5956 340.426 80.2846 345.776 77.5255 350.204C75.5021 353.34 73.8466 356.846 72.743 360.351C71.6393 363.856 71.0875 367.731 71.6393 371.421C72.0072 373.819 72.9269 377.693 73.4787 380.276C74.0306 382.49 74.3984 384.888 74.7663 387.287C76.2379 399.832 74.2145 412.562 71.2714 424.554L65.0173 449.276C64.4655 451.49 63.9137 453.888 64.0976 456.286C64.2815 457.578 64.6494 458.869 65.2013 459.976C65.7531 461.083 66.4889 462.006 67.5925 462.744C68.1444 463.113 68.8801 463.482 69.6159 463.666C70.7196 463.85 71.8232 463.85 72.9269 464.219C74.0306 464.773 74.7663 465.695 75.5021 466.802C78.6292 472.522 79.7328 480.455 82.1241 486.543C82.6759 487.834 83.4117 489.31 84.8832 490.048C85.619 490.417 86.5387 490.417 87.2745 490.417C91.1373 490.417 108.796 490.602 112.291 490.233C113.027 490.233 113.762 490.048 114.498 489.679C115.234 489.31 115.786 488.757 116.154 488.019C116.705 486.912 116.889 485.436 116.889 484.329C116.889 482.484 116.522 480.639 115.786 478.979C115.05 477.503 113.946 476.396 112.843 475.473C111.555 474.366 108.98 472.706 107.508 471.784C104.749 469.754 101.99 467.725 99.7827 465.142C98.4951 463.481 97.3914 461.637 96.4717 459.792C95.7359 458.131 95.0001 456.286 94.6323 454.441C94.0804 452.597 93.8965 450.567 93.5286 448.722C92.6089 440.42 92.4249 431.749 92.6089 423.631C92.7928 417.359 93.1607 411.086 94.4483 404.813C95.9199 398.356 98.4951 392.084 100.886 385.995C102.91 381.383 106.589 372.897 108.612 368.284C110.267 364.779 112.107 361.274 114.314 357.953C117.441 353.34 121.672 349.466 126.087 346.145C133.628 340.426 142.458 334.522 149.264 328.065C159.196 319.025 166.922 307.771 173.728 296.148C178.878 287.108 183.661 277.884 187.156 268.106C191.019 257.405 193.41 246.151 194.882 234.897" stroke="#F1F6FF" stroke-width="2.25" stroke-miterlimit="10" stroke-linecap="round" stroke-linejoin="round"/>
<path d="M128.478 344.3C130.317 346.145 132.524 348.175 134.732 349.466C137.123 351.127 140.618 352.971 143.009 354.632C144.481 355.554 145.768 356.661 146.504 358.322C146.688 358.875 146.872 359.613 147.056 360.167C147.608 363.487 147.608 367.546 148.527 370.867C148.895 372.343 149.447 374.003 150.551 375.295C151.287 376.033 152.574 376.586 153.494 376.033C154.23 375.664 154.781 374.741 154.965 374.003C156.069 371.052 156.253 367.546 157.173 364.41C157.357 363.672 157.541 363.118 158.092 362.565C158.276 362.196 158.644 361.827 159.196 361.643C159.748 361.458 160.3 361.274 160.852 361.274C161.587 361.274 162.323 361.274 163.059 361.458C164.714 361.643 166.738 362.012 168.393 362.196C170.049 362.381 171.704 362.196 173.36 362.012C174.831 361.827 177.223 361.458 178.694 361.643C179.062 361.643 179.43 361.643 179.614 361.827C179.798 361.827 180.166 362.012 180.35 362.196C180.534 362.381 180.718 362.75 180.901 363.118C181.085 363.672 181.269 364.041 181.453 364.594C182.189 367.731 182.925 371.421 184.212 374.188C184.764 375.11 185.316 376.217 186.42 376.771C186.788 376.955 187.34 376.955 187.707 376.771C188.627 376.402 188.995 375.664 189.363 374.741C190.834 371.421 191.018 367.362 191.938 364.041C192.306 363.118 192.49 362.196 193.042 361.274C193.41 360.72 193.961 360.167 194.697 359.798C195.065 359.613 195.433 359.429 195.617 359.244C197.089 358.506 199.296 357.399 200.767 356.661C207.757 352.971 213.827 347.621 219.346 342.087C221.185 340.242 223.209 338.212 224.864 336.183C225.968 335.076 227.071 333.231 228.175 332.124C229.095 331.202 230.014 330.464 231.486 330.095C232.406 329.91 233.325 329.91 234.429 330.095C236.085 330.279 237.556 330.648 239.212 331.202C249.145 334.338 259.629 339.688 269.562 342.64C273.609 343.931 277.84 344.854 282.071 344.854C288.141 345.038 294.027 343.193 299.729 340.98" stroke="#F1F6FF" stroke-width="2.25" stroke-miterlimit="10" stroke-linecap="round" stroke-linejoin="round"/>
<path d="M79.5488 476.949C89.2978 477.134 99.2308 475.658 108.244 471.968" stroke="#F1F6FF" stroke-width="2.25" stroke-miterlimit="10" stroke-linecap="round" stroke-linejoin="round"/>
<path d="M552.1 161.285C553.571 163.13 554.859 165.16 556.514 167.005C557.802 168.296 559.089 169.403 560.561 170.51C563.32 172.355 566.631 173.831 569.758 174.938C574.725 176.598 580.059 177.705 585.209 178.443C596.43 180.104 608.754 178.628 619.975 179.366C630.644 180.104 641.312 182.686 651.613 185.638C654.556 186.376 657.499 187.114 660.442 186.561C663.202 186.007 665.777 184.531 667.984 182.686" stroke="#F1F6FF" stroke-width="2.25" stroke-miterlimit="10" stroke-linecap="round" stroke-linejoin="round"/>
<path d="M408.624 266.814C407.521 275.854 406.785 285.263 407.705 294.303C408.073 298.547 408.808 302.605 410.464 306.664C411.384 308.878 412.487 311.092 413.959 312.937C415.062 314.413 416.35 316.258 417.454 317.918C418.189 319.025 418.741 320.317 419.109 321.608C419.661 324.006 419.477 326.774 419.477 329.172C418.741 339.319 417.27 350.389 418.189 360.536C418.373 362.565 418.557 364.594 418.925 366.624C419.477 369.391 420.765 374.188 421.5 376.771C421.868 378.431 422.42 380.276 422.604 382.121C422.788 383.781 422.788 385.442 422.972 386.918C422.972 390.239 422.788 393.928 423.524 397.065C424.26 400.201 425.179 403.522 425.547 406.843C426.099 411.271 426.099 415.698 426.099 420.126C425.915 432.303 424.628 444.663 422.236 456.655C421.868 459.054 420.397 464.957 420.213 467.171C420.213 467.909 420.029 468.647 420.029 469.201C420.029 469.939 420.213 470.861 420.765 471.599C420.949 472.153 421.317 472.522 421.684 472.891C422.052 473.26 422.42 473.628 422.788 473.997C423.156 474.366 423.708 474.551 424.076 474.735C424.628 474.92 425.179 474.92 425.731 474.735C427.203 474.551 429.042 473.997 430.514 473.628C430.698 473.628 431.066 473.444 431.249 473.444C431.617 473.444 432.169 473.444 432.537 473.813C432.905 474.182 433.273 474.551 433.457 475.104C433.825 475.842 434.009 476.58 434.377 477.318C435.296 480.27 436.4 483.775 437.688 486.543C438.239 487.65 438.975 489.126 440.263 489.679C440.999 490.048 442.102 490.048 442.838 490.233H466.935C467.119 490.233 467.302 490.233 467.486 490.233C467.854 490.233 468.038 490.233 468.406 490.048C468.774 489.864 468.958 489.495 469.142 489.126C469.51 488.203 469.694 487.096 469.878 486.174C470.062 484.513 470.062 482.669 469.878 481.008C469.694 480.086 469.51 479.163 468.958 478.241C468.406 477.134 467.67 476.211 466.935 475.473C464.359 472.891 461.232 470.492 458.105 468.463C456.45 467.356 453.875 465.695 452.403 464.588C451.299 463.666 450.012 462.559 449.276 461.268C448.356 459.976 447.988 458.316 447.62 456.84C446.333 451.674 445.965 445.955 445.413 440.605C444.493 428.059 443.942 414.96 445.597 402.415C445.965 399.648 446.701 396.88 447.437 394.113C448.172 391.899 449.46 389.132 450.012 386.918C450.931 384.15 451.483 381.383 451.851 378.431C452.955 371.052 454.426 360.72 456.266 353.709C458.289 345.961 460.497 338.028 464.175 331.017C465.279 329.172 466.383 327.143 467.67 325.482C469.878 322.715 472.821 319.394 474.844 316.442C479.259 310.539 482.57 303.897 485.329 297.071" stroke="#F1F6FF" stroke-width="2.25" stroke-miterlimit="10" stroke-linecap="round" stroke-linejoin="round"/>
<path d="M433.824 477.134C437.687 476.58 441.366 475.658 445.045 473.997C448.908 472.337 452.586 469.939 455.714 467.171" stroke="#F1F6FF" stroke-width="2.25" stroke-miterlimit="10" stroke-linecap="round" stroke-linejoin="round"/>
<path d="M176.303 291.905C186.052 290.245 196.353 289.507 205.918 292.274C210.148 293.565 214.195 295.41 218.058 297.624C227.439 303.159 239.028 313.49 247.673 320.501C253.559 325.298 259.813 329.726 266.619 333.231C271.218 335.445 276 337.29 280.967 338.397C293.659 341.349 307.087 340.611 319.963 338.581C337.621 335.629 358.959 328.434 376.617 326.036C382.136 325.298 387.838 325.113 393.356 325.667C401.45 326.22 411.015 328.619 419.108 330.279" stroke="#F1F6FF" stroke-width="2.25" stroke-miterlimit="10" stroke-linecap="round" stroke-linejoin="round"/>
<path d="M461.416 336.183C465.463 335.998 469.693 335.629 473.556 334.153C476.315 333.046 478.891 331.202 481.098 328.988C483.673 326.405 486.616 321.793 488.824 318.656C489.927 316.996 491.215 315.335 492.686 313.675C493.974 312.199 496.365 309.985 497.653 308.694C500.228 306.111 502.619 303.343 504.459 300.207C507.586 294.857 509.609 288.953 511.633 283.049C513.288 277.884 517.519 264.047 519.542 259.066C520.094 257.59 520.83 256.114 521.382 254.822C523.037 251.502 525.98 248.55 528.371 245.782C530.947 242.646 533.89 238.772 536.465 235.451C541.064 229.178 564.976 196.523 568.839 190.804C571.782 186.376 574.725 181.764 577.117 176.967" stroke="#F1F6FF" stroke-width="2.25" stroke-miterlimit="10" stroke-linecap="round" stroke-linejoin="round"/>
<path d="M570.31 108.89C567.919 108.521 565.528 107.414 563.321 106.307C561.481 105.2 559.642 104.093 558.354 102.433C557.802 101.879 557.434 101.141 557.066 100.404C556.699 99.6655 556.515 98.7431 556.515 97.8206L556.331 95.4223C555.963 92.6549 555.043 90.2565 553.939 87.6736C552.652 84.7218 550.628 80.8475 549.525 77.8956C548.973 76.4197 548.421 74.9438 548.053 73.4678C547.869 72.3609 547.685 71.254 548.053 70.147C548.237 69.5935 548.789 69.0401 549.341 68.6711C550.077 68.1176 551.18 67.7486 552.1 67.7486C553.755 67.5641 555.227 67.5641 556.882 67.9331C559.642 68.3021 562.401 69.2246 564.976 70.516C568.103 71.9919 570.862 74.0213 573.621 76.0507C575.093 77.1577 578.22 79.925 579.691 81.2165C580.979 82.3234 583.554 84.5373 584.842 85.8287C586.681 87.6736 588.521 89.5185 589.441 92.1014C590.36 94.6843 590.176 97.4516 589.624 100.219" stroke="#F1F6FF" stroke-width="2.25" stroke-miterlimit="10" stroke-linecap="round" stroke-linejoin="round"/>
<path d="M70.1676 189.328C68.1442 202.611 66.3048 216.817 65.7529 230.101C64.8332 251.686 64.8332 274.563 65.9369 296.148C66.3048 301.683 66.6727 307.771 67.4084 313.121C67.7763 316.627 69.0639 324.744 69.0639 328.25C69.2479 331.017 69.0639 333.969 68.3282 336.736C67.5924 339.873 66.4887 343.931 65.7529 347.068C65.3851 349.282 65.0172 351.496 65.0172 353.894C65.0172 360.536 66.6727 367.731 66.4887 374.372C66.4887 376.402 66.1208 378.431 65.3851 380.276C64.2814 383.412 62.442 386.733 60.9704 389.685C60.2346 391.346 59.4989 393.19 59.131 394.851C58.5791 397.249 58.2113 399.648 58.0273 402.046C57.8434 404.629 57.6594 408.872 57.1076 411.271C56.9236 411.64 56.9236 412.009 56.7397 412.377C56.3718 412.193 56.0039 412.009 55.82 411.64C55.0842 410.717 54.5324 409.426 53.9805 408.319C51.9572 403.153 51.7732 397.065 50.4856 391.715C50.3017 391.161 50.1177 390.423 49.7498 389.87C49.5659 389.685 49.198 389.87 49.0141 389.87C48.6462 390.054 48.2783 390.054 47.7265 390.054C47.1746 389.685 46.8067 389.132 46.4389 388.394C45.7031 386.918 45.1513 385.073 44.7834 383.412C44.0476 379.907 44.0476 376.402 44.4155 372.896C44.9673 369.207 46.071 365.517 47.1746 362.011C47.9104 359.982 49.7498 355.37 50.1177 353.34C50.1177 352.971 50.3017 352.602 50.3017 352.049C48.4622 351.496 48.0944 351.496 47.9104 351.496C47.5425 351.496 47.1746 351.496 46.8067 351.496C46.8067 351.496 46.6228 351.496 46.6228 351.311C46.6228 350.942 46.8067 350.389 46.8067 350.02C47.7265 347.252 50.1177 341.902 51.2214 339.319C52.6929 335.814 54.1645 332.124 55.0842 328.25C56.0039 325.113 56.5558 321.792 57.1076 318.656C59.4989 301.867 56.7397 278.622 55.82 261.464L55.4521 253.715C55.0842 243.753 54.3484 206.855 54.1645 197.63C54.1645 190.066 54.3484 182.502 55.82 175.122C57.4755 167.005 60.6025 159.256 64.8332 152.245C68.88 145.604 73.8465 139.516 79.7327 134.534C85.8028 129.553 92.9766 125.679 100.702 123.834C107.14 122.173 113.946 121.989 120.568 122.173C156.253 124.018 273.793 126.97 311.134 127.524C318.492 127.524 326.769 127.339 333.943 126.97C339.461 126.601 345.531 126.232 350.866 125.494C358.591 124.572 374.043 121.62 381.768 120.329C391.517 118.668 401.45 117.746 411.383 118.115C421.5 118.299 436.032 119.96 446.148 120.882L448.356 121.066L449.643 121.251H450.931H451.483H452.035H452.586C455.162 121.251 457.737 121.251 460.312 120.698C463.255 120.144 466.014 119.406 468.773 118.484C484.041 113.687 507.218 104.278 522.301 98.9276C527.636 97.0827 535.545 94.6843 540.512 92.1014C544.742 89.8875 548.605 86.9357 552.284 83.9838" stroke="#F1F6FF" stroke-width="2.25" stroke-miterlimit="10" stroke-linecap="round" stroke-linejoin="round"/>
</g>
</svg>
