<svg width="48" height="48" viewBox="0 0 48 48" fill="none" xmlns="http://www.w3.org/2000/svg">
<rect x="48" y="48" width="48" height="48" rx="8" transform="rotate(180 48 48)" fill="#0060FE"/>
<path d="M28.2427 27.2426L24 31.4853L19.7573 27.2426C18.9182 26.4035 18.3468 25.3344 18.1153 24.1705C17.8838 23.0066 18.0026 21.8002 18.4567 20.7039C18.9109 19.6075 19.6799 18.6705 20.6666 18.0112C21.6533 17.3519 22.8133 17 24 17C25.1867 17 26.3467 17.3519 27.3334 18.0112C28.3201 18.6705 29.0891 19.6075 29.5433 20.7039C29.9974 21.8002 30.1162 23.0066 29.8847 24.1705C29.6532 25.3344 29.0818 26.4035 28.2427 27.2426ZM24 24.3333C24.3536 24.3333 24.6928 24.1928 24.9428 23.9428C25.1929 23.6927 25.3333 23.3536 25.3333 22.9999C25.3333 22.6463 25.1929 22.3072 24.9428 22.0571C24.6928 21.8071 24.3536 21.6666 24 21.6666C23.6464 21.6666 23.3072 21.8071 23.0572 22.0571C22.8071 22.3072 22.6667 22.6463 22.6667 22.9999C22.6667 23.3536 22.8071 23.6927 23.0572 23.9428C23.3072 24.1928 23.6464 24.3333 24 24.3333Z" fill="white"/>
</svg>
