<svg width="1279" height="677" viewBox="0 0 1279 677" fill="none" xmlns="http://www.w3.org/2000/svg">
<g opacity="0.1">
<path d="M1019.52 690.839V26.1609" stroke="#F1F6FF" stroke-width="2" stroke-miterlimit="10" stroke-linecap="round" stroke-linejoin="round"/>
<path d="M427.667 692.293V208.802" stroke="#F1F6FF" stroke-width="2" stroke-miterlimit="10" stroke-linecap="round" stroke-linejoin="round"/>
<path d="M444.135 692.293V192.331" stroke="#F1F6FF" stroke-width="2" stroke-miterlimit="10" stroke-linecap="round" stroke-linejoin="round"/>
<path d="M452.853 189.908L1019.52 680.666" stroke="#F1F6FF" stroke-width="2" stroke-miterlimit="10" stroke-linecap="round" stroke-linejoin="round"/>
<path d="M444.135 204.442L1005.48 690.839" stroke="#F1F6FF" stroke-width="2" stroke-miterlimit="10" stroke-linecap="round" stroke-linejoin="round"/>
<path d="M1036.48 690.839V26.1609" stroke="#F1F6FF" stroke-width="2" stroke-miterlimit="10" stroke-linecap="round" stroke-linejoin="round"/>
<path d="M1602.66 189.908L1036.48 680.666" stroke="#F1F6FF" stroke-width="2" stroke-miterlimit="10" stroke-linecap="round" stroke-linejoin="round"/>
<path d="M1611.38 204.442L1050.04 690.839" stroke="#F1F6FF" stroke-width="2" stroke-miterlimit="10" stroke-linecap="round" stroke-linejoin="round"/>
<path d="M431.542 178.766L6.78027 684.541V710.218C515.816 707.311 1540.18 707.311 2049.22 710.218V684.541L1624.46 178.766" stroke="#F1F6FF" stroke-width="2" stroke-miterlimit="10" stroke-linecap="round" stroke-linejoin="round"/>
<path d="M6.78027 710.702L440.744 193.299L431.542 178.766L1027.76 6.78247V23.7386L440.744 193.299" stroke="#F1F6FF" stroke-width="2" stroke-miterlimit="10" stroke-linecap="round" stroke-linejoin="round"/>
<path d="M2049.22 710.702L1615.26 193.299L1624.46 178.766L1027.76 6.78247V23.7386L1615.26 193.299" stroke="#F1F6FF" stroke-width="2" stroke-miterlimit="10" stroke-linecap="round" stroke-linejoin="round"/>
<path d="M431.542 178.766L6.78027 684.541V710.218C515.816 707.311 1540.18 707.311 2049.22 710.218V684.541L1624.46 178.766L1027.76 6.78247L431.542 178.766Z" stroke="#F1F6FF" stroke-width="2.75" stroke-miterlimit="10" stroke-linecap="round" stroke-linejoin="round"/>
</g>
</svg>
